<svg id="Layer_1" data-name="Layer 1" xmlns="http://www.w3.org/2000/svg" viewBox="0 0 581.98 581.6"><defs><style>.cls-1{fill:#fff;}</style></defs><title>Artboard 2</title><path class="cls-1" d="M4.68,558.2V30.27H583.53V558.2ZM405.46,292.6c8,6,16.55,7.94,26,7.72,14.91-.36,25.71-6.61,31.24-20.44,6.29-15.71,12.3-31.56,17.6-47.63,4.55-13.82-1.33-28.43-13.49-36.65-8.58-5.8-18-6.5-27.72-4.2-3.35.79-4.86-.49-6.52-2.84-5.73-8.17-12.07-16-17.27-24.46-9.59-15.67-24.17-19.26-41-16.18-26.56,4.86-53,10.3-79.54,15.43-14.61,2.82-24.59,13.29-27.11,28.2-1.37,8.15-3.13,16.25-5,24.3a7,7,0,0,1-3.17,4.24c-13.43,6.6-27.1,12.7-40.4,19.54-4.29,2.21-8.79,5.46-11.31,9.43-11.31,17.83-21.88,36.13-32.89,54.16a16.46,16.46,0,0,1-5.8,5.72c-10.82,5.86-21.93,11.19-32.75,17.05-15.71,8.53-22,27-14.88,42.69,7.9,17.31,27.37,24.42,44.9,16,15.62-7.46,31.13-15.13,46.44-23.19a27.12,27.12,0,0,0,9.2-8.73c4-5.89,7.08-12.41,10.7-18.57,4.83-8.25,9.82-16.42,15-25.1,3.7,5.06,7.14,9.35,10,14a8.56,8.56,0,0,1,1,6.19c-4.59,16-14.14,29.26-24.89,41.59-21,24-45.5,43.89-72.56,60.64-26.8,16.59-55.51,28.37-86.73,33.57C67,466.35,63.2,470.3,63.72,477.92c1.19,17.47,7.6,33.11,21.08,44.31,25.51,21.18,54,26.5,85,12.61a6.45,6.45,0,0,1,5.48.6c25.19,18.5,52.75,22.59,82.12,12.85,9-3,17.19-8.24,24.79-12,6.58,3.65,12.87,8.05,19.82,10.79,17.75,7,36.39,7.71,55,4.76,14.32-2.27,28.28-6.14,38.55-17.66,2.55,1,5.11,2.11,7.75,3a101.52,101.52,0,0,0,37.34,5c27-1.21,47.76-12.81,60.87-36.93,3.74-6.88,2.84-11-2.72-16.38-16.24-15.78-32.52-31.52-48.49-47.57-12.83-12.89-12.64-13.08-12.65-31.13,0-4.16-.13-8.33,0-12.5a60,60,0,0,0-4.91-24.7q-13-31.29-25.6-62.71C405,304.89,403.72,299.25,405.46,292.6ZM250.68,97c0,26.84,22.29,49.21,49.13,49.26,26.66.06,49.34-22,50-47.55.71-29.53-23.25-51.58-49-51.48C272.58,47.29,250.71,68.9,250.68,97Zm11,76.6c.17-26.05-22.1-48.87-47.54-49.46-29-.68-51,22.54-51.42,47.48-.53,28.65,21.05,51.47,48.18,51.6C239.54,223.32,261.49,201.87,261.68,173.56Z"/><path d="M405.46,292.6c-1.74,6.65-.46,12.29,1.69,17.64q12.62,31.42,25.6,62.71a60,60,0,0,1,4.91,24.7c-.1,4.17,0,8.34,0,12.5,0,18.05-.18,18.24,12.65,31.13,16,16.05,32.25,31.79,48.49,47.57,5.56,5.4,6.46,9.5,2.72,16.38-13.11,24.12-33.87,35.72-60.87,36.93a101.52,101.52,0,0,1-37.34-5c-2.64-.89-5.2-2-7.75-3-10.27,11.52-24.23,15.39-38.55,17.66-18.62,2.95-37.26,2.26-55-4.76-6.95-2.74-13.24-7.14-19.82-10.79-7.6,3.75-15.81,9-24.79,12-29.37,9.74-56.93,5.65-82.12-12.85a6.45,6.45,0,0,0-5.48-.6c-31.06,13.89-59.51,8.57-85-12.61C71.32,511,64.91,495.39,63.72,477.92c-.52-7.62,3.27-11.57,10.82-12.83,31.22-5.2,59.93-17,86.73-33.57,27.06-16.75,51.59-36.62,72.56-60.64,10.75-12.33,20.3-25.55,24.89-41.59a8.56,8.56,0,0,0-1-6.19c-2.9-4.62-6.34-8.91-10-14-5.2,8.68-10.19,16.85-15,25.1-3.62,6.16-6.69,12.68-10.7,18.57a27.12,27.12,0,0,1-9.2,8.73c-15.31,8.06-30.82,15.73-46.44,23.19-17.53,8.38-37,1.27-44.9-16-7.15-15.67-.83-34.16,14.88-42.69,10.82-5.86,21.93-11.19,32.75-17.05a16.46,16.46,0,0,0,5.8-5.72c11-18,21.58-36.33,32.89-54.16,2.52-4,7-7.22,11.31-9.43,13.3-6.84,27-12.94,40.4-19.54a7,7,0,0,0,3.17-4.24c1.87-8,3.63-16.15,5-24.3,2.52-14.91,12.5-25.38,27.11-28.2,26.52-5.13,53-10.57,79.54-15.43,16.85-3.08,31.43.51,41,16.18,5.2,8.5,11.54,16.29,17.27,24.46,1.66,2.35,3.17,3.63,6.52,2.84,9.71-2.3,19.14-1.6,27.72,4.2,12.16,8.22,18,22.83,13.49,36.65-5.3,16.07-11.31,31.92-17.6,47.63-5.53,13.83-16.33,20.08-31.24,20.44C422,300.54,413.47,298.6,405.46,292.6Zm73.22,207.3c-59.14-54.88-109.49-116.33-153-183.43-2,1.26-3.66,2.37-5.37,3.37-10.31,6.05-21.49,9.53-33.24,11.49-2.58.43-5.89-.32-7,3.86-4.3,15.64-12.68,29.15-22.49,41.89C243,396,225.57,411.86,207,426.58c-22.39,17.76-46.21,33.35-72.81,44-14.86,5.94-30.43,10.09-46.41,15.28,1.22,3.14,2.31,7.34,4.36,11,5.53,9.88,14.12,15.94,24.86,19.53,17.76,5.94,34.58,5,50.53-5.37,4.87-3.18,9.72-2.41,14.58,1.75,13.59,11.64,29.13,18.49,47.24,18.34,17.77-.16,32.85-7.32,46.21-18.59,5.77-4.88,13-4.58,17,1.27,4.58,6.67,10.92,10.59,18.3,13.09,16.35,5.54,33,5.67,49.67,1.83,10-2.31,19-6.58,25-15.86,2.85-4.45,9.71-4.78,14.41-1.88A45.39,45.39,0,0,0,410,516.09c13,4,26.34,5.66,39.82,2.88C461.79,516.49,472,511,478.68,499.9ZM347.92,245.22V245c10.15,0,20.44,1,30.44-.2,23.85-3,47.55-7,71.32-10.57,5.9-.87,10.63-6.5,10-12.28-.62-5.5-6.29-10.21-11.59-9.43-11.48,1.69-22.91,3.76-34.42,5.2-16.11,2-31.91,6.12-48.38,5.59-17.31-.56-34.66-.39-52,.08A44.16,44.16,0,0,0,296.47,227c-21.44,9.84-42.67,20.13-63.75,30.71a26.11,26.11,0,0,0-10,9.14c-10.46,16.79-20.17,34.05-30.64,50.84a29.47,29.47,0,0,1-10.24,9.64c-11.29,6.34-23,11.92-34.53,17.83-6.06,3.1-8.3,9.36-5.46,15.09a10.82,10.82,0,0,0,14.53,4.55c14.35-7,28.66-14.09,42.83-21.43a16.2,16.2,0,0,0,5.74-6c10.55-17.33,20.82-34.82,31.36-52.14,5.74-9.44,13.91-9.7,20.68-.83,5.86,7.67,11.47,15.53,17.44,23.11,1.09,1.39,3.52,2.72,5.15,2.54,12.22-1.36,23.63-5.22,33.51-12.72A6.76,6.76,0,0,0,315.3,292c-1.58-11-3.57-21.92-5.4-32.87-1.33-7.92,3.54-13.85,11.53-13.91C330.26,245.16,339.09,245.22,347.92,245.22Zm66.89,155.49,2.08-.87c-1.82-6.8-3.05-13.83-5.58-20.35-8-20.57-16.57-40.91-24.74-61.41-4.84-12.12-5.52-24.45-1.18-36.95,1.75-5.05,3.12-10.23,4.41-14.5H333.75c1.32,8.25,2.18,15.49,3.73,22.57a31.83,31.83,0,0,0,4.46,11.29q26,37.49,52.53,74.6C400.82,383.94,408,392.19,414.81,400.71Zm-4.59-205.45c-4.27-6-9.07-11.78-12.74-18.19-4.33-7.55-10.88-9-18.24-7.66q-40.51,7.67-80.86,16.12c-2.61.55-5.91,2.75-6.89,5-2.06,4.8-2.79,10.17-4.05,15.26,6.76-1.55,12.64-3.4,18.66-4.14s12.29-.46,18.44-.49C353,201,381.67,203,410.22,195.26Zm38.69,61c-6.45,1.07-11.82,2-17.21,2.82s-10.66,1.52-16,2.28c0,1.77,0,2.93,0,4.09.12,6.62,3.15,11.73,8.59,12.34,8.61,1,14.91,1.56,18-6.22C444.3,266.7,446.5,261.89,448.91,256.3Z"/><path d="M250.68,97c0-28.06,21.9-49.67,50.07-49.77,25.77-.1,49.73,22,49,51.48-.62,25.5-23.3,47.61-50,47.55C273,146.17,250.66,123.8,250.68,97Zm49.48-27.69c-14.85-.13-27.22,12.15-27.45,27.26a27.46,27.46,0,0,0,54.92.5A27.55,27.55,0,0,0,300.16,69.27Z"/><path d="M261.68,173.56c-.19,28.31-22.14,49.76-50.78,49.62-27.13-.13-48.71-23-48.18-51.6.46-24.94,22.37-48.16,51.42-47.48C239.58,124.69,261.85,147.51,261.68,173.56Zm-49.4,27.66c15.14,0,27.46-12.78,27.4-28.33-.06-14.63-12.73-26.72-27.88-26.63-14.79.09-27.15,12.32-27.15,26.85C184.65,188.63,197.06,201.26,212.28,201.22Z"/><path class="cls-1" d="M478.68,499.9C472,511,461.79,516.49,449.84,519c-13.48,2.78-26.81,1.12-39.82-2.88A45.39,45.39,0,0,1,399.88,511c-4.7-2.9-11.56-2.57-14.41,1.88-5.94,9.28-15,13.55-25,15.86-16.63,3.84-33.32,3.71-49.67-1.83-7.38-2.5-13.72-6.42-18.3-13.09-4-5.85-11.21-6.15-17-1.27-13.36,11.27-28.44,18.43-46.21,18.59-18.11.15-33.65-6.7-47.24-18.34-4.86-4.16-9.71-4.93-14.58-1.75-15.95,10.42-32.77,11.31-50.53,5.37-10.74-3.59-19.33-9.65-24.86-19.53-2-3.67-3.14-7.87-4.36-11,16-5.19,31.55-9.34,46.41-15.28,26.6-10.63,50.42-26.22,72.81-44,18.57-14.72,36-30.63,50.53-49.5,9.81-12.74,18.19-26.25,22.49-41.89,1.14-4.18,4.45-3.43,7-3.86,11.75-2,22.93-5.44,33.24-11.49,1.71-1,3.36-2.11,5.37-3.37C369.19,383.57,419.54,445,478.68,499.9Z"/><path class="cls-1" d="M347.92,245.22c-8.83,0-17.66-.06-26.49,0-8,.06-12.86,6-11.53,13.91,1.83,11,3.82,21.88,5.4,32.87a6.76,6.76,0,0,1-2.19,5.32c-9.88,7.5-21.29,11.36-33.51,12.72-1.63.18-4.06-1.15-5.15-2.54-6-7.58-11.58-15.44-17.44-23.11-6.77-8.87-14.94-8.61-20.68.83-10.54,17.32-20.81,34.81-31.36,52.14a16.2,16.2,0,0,1-5.74,6c-14.17,7.34-28.48,14.42-42.83,21.43a10.82,10.82,0,0,1-14.53-4.55c-2.84-5.73-.6-12,5.46-15.09,11.53-5.91,23.24-11.49,34.53-17.83a29.47,29.47,0,0,0,10.24-9.64c10.47-16.79,20.18-34.05,30.64-50.84a26.11,26.11,0,0,1,10-9.14C253.8,247.1,275,236.81,296.47,227a44.16,44.16,0,0,1,16.83-3.58c17.31-.47,34.66-.64,52-.08,16.47.53,32.27-3.59,48.38-5.59,11.51-1.44,22.94-3.51,34.42-5.2,5.3-.78,11,3.93,11.59,9.43.65,5.78-4.08,11.41-10,12.28-23.77,3.54-47.47,7.61-71.32,10.57-10,1.24-20.29.2-30.44.2Z"/><path class="cls-1" d="M414.81,400.71c-6.81-8.52-14-16.77-20.34-25.62q-26.6-37.06-52.53-74.6a31.83,31.83,0,0,1-4.46-11.29c-1.55-7.08-2.41-14.32-3.73-22.57H389.8c-1.29,4.27-2.66,9.45-4.41,14.5-4.34,12.5-3.66,24.83,1.18,36.95,8.17,20.5,16.75,40.84,24.74,61.41,2.53,6.52,3.76,13.55,5.58,20.35Z"/><path class="cls-1" d="M410.22,195.26C381.67,203,353,201,324.54,201.2c-6.15,0-12.36-.25-18.44.49s-11.9,2.59-18.66,4.14c1.26-5.09,2-10.46,4.05-15.26,1-2.29,4.28-4.49,6.89-5q40.35-8.4,80.86-16.12c7.36-1.39,13.91.11,18.24,7.66C401.15,183.48,406,189.25,410.22,195.26Z"/><path class="cls-1" d="M448.91,256.3c-2.41,5.59-4.61,10.4-6.59,15.31-3.13,7.78-9.43,7.19-18,6.22-5.44-.61-8.47-5.72-8.59-12.34,0-1.16,0-2.32,0-4.09,5.35-.76,10.69-1.46,16-2.28S442.46,257.37,448.91,256.3Z"/><path class="cls-1" d="M300.16,69.27a27.43,27.43,0,1,1-.54,54.86,27.24,27.24,0,0,1-26.91-27.6C272.94,81.42,285.31,69.14,300.16,69.27Z"/><path class="cls-1" d="M212.28,201.22c-15.22,0-27.63-12.59-27.63-28.11,0-14.53,12.36-26.76,27.15-26.85,15.15-.09,27.82,12,27.88,26.63C239.74,188.44,227.42,201.18,212.28,201.22Z"/></svg>