<svg width="210" height="82" viewBox="0 0 210 82" fill="none" xmlns="http://www.w3.org/2000/svg">
<path d="M64.8279 62.816L65.8339 80.0289H74.8874V39.7909H34.3141V48.2856H65.4985V50.074C65.4985 61.4748 54.4331 73.0991 39.0085 73.0991C17.2129 73.0991 9.50064 57.1156 9.50064 40.9086C9.50064 24.7017 16.9894 8.71824 38.5614 8.71824C53.3154 8.71824 61.4747 18.2189 63.7102 29.2843H73.5461C71.7578 15.4246 61.0277 0 38.6732 0C11.0655 0 0 19.6719 0 40.9086C0 63.2631 12.4067 81.8173 36.4378 81.8173C51.527 81.8173 59.9099 74.3286 64.1573 62.816H64.8279Z" fill="#FEFEFE"/>
<path d="M118.439 20.5661C107.597 20.5661 99.438 27.9431 97.985 39.1203H97.3143L96.7555 22.3545H88.2608V80.0289H97.3143V50.2975C97.3143 37.4437 104.356 28.8372 114.863 28.8372C124.14 28.8372 130.287 35.0965 130.287 44.5971V80.0289H139.229V41.6911C139.229 29.0608 130.958 20.5661 118.439 20.5661Z" fill="#FEFEFE"/>
<path d="M179.933 81.8173C195.693 81.8173 210 69.9694 210 50.9682C210 32.414 195.693 20.5661 179.933 20.5661C164.173 20.5661 149.867 32.414 149.867 50.9682C149.867 69.9694 164.173 81.8173 179.933 81.8173ZM179.933 73.7697C167.638 73.7697 159.032 65.1632 159.032 50.9682C159.032 37.1084 167.638 28.6137 179.933 28.6137C192.228 28.6137 200.835 37.1084 200.835 50.9682C200.835 65.1632 192.228 73.7697 179.933 73.7697Z" fill="#FEFEFE"/>
</svg>
