<svg width="404" height="158" viewBox="0 0 404 158" fill="none" xmlns="http://www.w3.org/2000/svg">
<path d="M125.095 120.567L127.026 153.605H144.403V76.3735H66.5274V92.678H126.382V96.1105C126.382 117.993 105.143 140.304 75.5378 140.304C33.704 140.304 18.9013 109.626 18.9013 78.5188C18.9013 47.4116 33.2749 16.7335 74.6797 16.7335C102.998 16.7335 118.659 34.9688 122.949 56.2075H141.828C138.396 29.6055 117.801 0 74.8942 0C21.9047 0 0.666016 37.7577 0.666016 78.5188C0.666016 121.425 24.4791 157.038 70.6036 157.038C99.5654 157.038 115.655 142.664 123.808 120.567H125.095Z" fill="#333333"/>
<path d="M227.995 39.4739C207.185 39.4739 191.524 53.6331 188.735 75.0863H187.448L186.376 42.9065H170.071V153.605H187.448V96.5395C187.448 71.8683 200.964 55.3493 221.13 55.3493C238.936 55.3493 250.735 67.3632 250.735 85.5984V153.605H267.898V80.0205C267.898 55.7784 252.022 39.4739 227.995 39.4739Z" fill="#333333"/>
<path d="M346.025 157.038C376.274 157.038 403.734 134.297 403.734 97.8267C403.734 62.2144 376.274 39.4739 346.025 39.4739C315.775 39.4739 288.315 62.2144 288.315 97.8267C288.315 134.297 315.775 157.038 346.025 157.038ZM346.025 141.591C322.426 141.591 305.907 125.072 305.907 97.8267C305.907 71.2247 322.426 54.9203 346.025 54.9203C369.623 54.9203 386.142 71.2247 386.142 97.8267C386.142 125.072 369.623 141.591 346.025 141.591Z" fill="#333333"/>
<circle cx="177.893" cy="20.7142" r="8.93885" fill="#333333"/>
</svg>
